<svg xmlns="http://www.w3.org/2000/svg" xmlns:xlink="http://www.w3.org/1999/xlink" xmlns:xodm="http://www.corel.com/coreldraw/odm/2003" xml:space="preserve" version="1.1" style="shape-rendering:geometricPrecision;text-rendering:geometricPrecision;image-rendering:optimizeQuality;" viewBox="0 0 484.768 608.28125" x="0px" y="0px" fill-rule="evenodd" clip-rule="evenodd"><defs><style type="text/css">
   
    .fil0 {fill:#CF3F02;fill-rule:nonzero}
   
  </style></defs><g><path class="fil0" d="M262.959 256.606l-8.814 -27.55c-0.112,-0.34 -0.312,-0.621 -0.567,-0.817 -0.277,-0.212 -0.626,-0.337 -1.002,-0.344 -10.268,-0.367 -20.619,-0.291 -30.897,-0.608 -1.571,-0.037 -3.039,-0.449 -4.333,-1.192 -1.312,-0.752 -2.415,-1.824 -3.233,-3.167l-15.523 -25.46c-0.786,-1.288 -1.233,-2.681 -1.333,-4.116 -0.101,-1.425 0.143,-2.859 0.738,-4.236l10.351 -23.956c0.056,-0.129 0.118,-0.254 0.186,-0.373 0.783,-1.616 1.973,-2.915 3.42,-3.803 1.554,-0.954 3.389,-1.429 5.318,-1.31l82.546 5.096c0.383,0.024 0.726,-0.053 0.996,-0.214 0.272,-0.163 0.504,-0.426 0.662,-0.767l5.8 -12.571c0.156,-0.338 0.206,-0.681 0.154,-0.992 -0.052,-0.315 -0.212,-0.627 -0.47,-0.897l-19.108 -20.003c-0.215,-0.225 -0.456,-0.379 -0.707,-0.458 -0.262,-0.082 -0.556,-0.096 -0.86,-0.036l-30.387 6.213c-0.639,0.131 -1.265,0.195 -1.909,0.19 -0.667,-0.005 -1.301,-0.08 -1.933,-0.225l-19.466 -4.41c-1.709,-0.387 -3.208,-1.21 -4.393,-2.371 -1.18,-1.157 -2.03,-2.634 -2.448,-4.332 -0.418,-1.69 -0.353,-3.392 0.153,-4.97 0.506,-1.577 1.445,-3 2.771,-4.134l21.702 -18.565c0.322,-0.276 0.521,-0.634 0.583,-1.006 0.061,-0.379 -0.012,-0.79 -0.233,-1.162l-1.989 -3.353c-1.269,-2.135 -1.559,-4.589 -1.002,-6.832 0.559,-2.252 1.97,-4.293 4.097,-5.59l26.923 -16.442c1.837,-1.12 3.922,-1.528 5.927,-1.267 2.006,0.262 3.919,1.195 5.41,2.755l11.217 11.716c0.249,0.259 0.539,0.429 0.838,0.499 0.31,0.073 0.649,0.053 0.983,-0.068l26.957 -9.721c1.486,-0.542 3,-0.695 4.461,-0.473 1.473,0.223 2.877,0.816 4.129,1.764 23.523,17.793 43.768,44.015 56.714,75.103 11.655,27.989 17.407,59.952 14.32,93.287 3.655,3.619 7.055,7.588 10.151,11.904 0.093,0.129 0.179,0.263 0.26,0.398 3.597,5.067 6.615,10.376 9.065,15.846 0.867,-4.309 1.51,-8.5 1.983,-12.637 1.1,-9.617 1.297,-19.106 1.297,-29.143 0,-58.171 -23.58,-110.838 -61.701,-148.96 -38.122,-38.122 -90.788,-61.702 -148.959,-61.702 -58.172,0 -110.837,23.58 -148.958,61.702 -38.122,38.122 -61.702,90.789 -61.702,148.96 0,58.17 23.58,110.836 61.702,148.958 38.122,38.122 90.788,61.702 148.958,61.702 25.403,0 48.472,-5.13 69.9,-13.622 16.357,-6.482 31.821,-14.943 46.675,-24.593 -4.89,-0.32 -9.748,-1.022 -14.525,-2.101 -21.443,-4.841 -41.269,-17.238 -55.055,-36.447 -14.944,-20.818 -20.018,-45.767 -16.156,-69.239 1.712,-10.402 5.178,-20.517 10.316,-29.858zm-81.232 15.643c-0.215,1.096 -0.588,1.838 -1.005,2.668l-0.006 0.011 0.006 0.003c-9.496,18.833 -18.838,39.01 -28.872,57.405l0.007 0.003 -0.243 0.461c-0.044,0.087 -0.078,0.159 -0.09,0.198l-4.127 13.328c-0.06,0.195 -0.091,0.359 -0.092,0.493 0,0.141 0.029,0.31 0.087,0.508l2.274 7.681c0.132,0.443 0.226,0.861 0.286,1.282 0.065,0.46 0.096,0.883 0.096,1.3l0 3.803c0,0.233 0.018,0.405 0.053,0.518l0.015 0c0.048,0.152 0.127,0.305 0.235,0.458l0.059 0.086c0.994,1.412 1.551,3.001 1.662,4.633 0.11,1.634 -0.227,3.282 -1.022,4.812l-0.142 0.25c-0.79,1.415 -1.889,2.551 -3.202,3.349l-0.271 0.151c-1.349,0.761 -2.872,1.17 -4.476,1.17l-3.159 0c-1.949,0 -3.774,-0.605 -5.288,-1.68 -1.5,-1.066 -2.667,-2.591 -3.312,-4.44l-15.083 -43.24 -0.07 -0.221c-0.146,-0.454 -0.255,-0.899 -0.327,-1.358 -0.086,-0.528 -0.12,-1.059 -0.108,-1.62 0.535,-14.455 0.485,-29.004 1.02,-43.459 0.005,-0.376 -0.06,-0.718 -0.196,-0.978 -0.071,-0.135 -0.161,-0.241 -0.266,-0.295l-0.011 -0.007 -0.004 0.007 -37.828 -19.869 -0.258 -0.149c-1.3,-0.743 -2.284,-1.772 -2.972,-2.973 -0.731,-1.274 -1.12,-2.742 -1.19,-4.25 -0.18,-3.763 -0.146,-8.453 -0.589,-12.09 -0.16,-1.465 -0.322,-2.943 1.481,-4.549l10.183 -9.069c-0.091,-0.173 -0.192,-0.35 -0.293,-0.519l-14.277 -23.855c-0.146,-0.244 -0.318,-0.431 -0.507,-0.555l-0.009 -0.007 -0.005 0.007c-0.208,-0.135 -0.451,-0.224 -0.718,-0.258l-17.549 -2.249c-0.875,-0.112 -1.676,-0.323 -2.428,-0.643 -0.76,-0.325 -1.468,-0.757 -2.149,-1.308l-0.008 0.009 -11.265 -9.115c-0.099,-0.08 -0.193,-0.165 -0.282,-0.253 -1.209,-1.06 -2.088,-2.376 -2.598,-3.84 -0.551,-1.572 -0.655,-3.283 -0.269,-4.997 5.463,-24.238 15.461,-46.753 29.052,-66.602 13.853,-20.232 31.433,-37.704 51.747,-51.419 0.505,-0.341 1.024,-0.625 1.592,-0.862 0.557,-0.233 1.127,-0.404 1.739,-0.526l37.104 -7.388c1.611,-0.32 3.213,-0.21 4.701,0.296 1.482,0.502 2.822,1.398 3.916,2.649l6.229 7.107c1.097,1.251 1.809,2.692 2.114,4.217 0.305,1.529 0.201,3.134 -0.331,4.71 -0.528,1.559 -1.426,2.896 -2.613,3.937 -1.181,1.036 -2.62,1.752 -4.234,2.076l-8.165 1.635c-1.201,0.216 -2.381,0.198 -3.528,-0.051 -1.207,-0.261 -2.342,-0.769 -3.387,-1.517l-4.541 -3.262c-0.192,-0.114 -0.385,-0.187 -0.574,-0.216 -0.23,-0.035 -0.499,-0.006 -0.794,0.09l-19.982 6.52c-0.353,0.115 -0.638,0.316 -0.833,0.57 -0.197,0.258 -0.316,0.585 -0.334,0.947l-0.466 9.339c-0.013,0.261 0.014,0.486 0.082,0.672l0.033 0.095c0.067,0.148 0.178,0.306 0.33,0.472l0.111 0.125c0.13,0.12 0.272,0.216 0.424,0.287 0.191,0.087 0.41,0.137 0.655,0.146l22.119 0.804c1.585,0.056 3.063,0.493 4.357,1.266 1.288,0.769 2.372,1.862 3.174,3.231l6.692 11.421 0.011 -0.006c1.206,2.063 1.51,4.423 1.016,6.608 -0.492,2.177 -1.785,4.175 -3.776,5.528l-57.307 38.936 0.004 0.006c-0.836,0.569 -1.711,0.983 -2.645,1.248 -0.912,0.259 -1.864,0.363 -2.874,0.32 -6.983,-0.393 -14.094,-0.645 -21.088,-0.905 -0.333,-0.013 -0.624,0.044 -0.857,0.163l-0.006 0.003 0.006 0.012c-0.241,0.122 -0.459,0.323 -0.636,0.591l-8.763 13.27c-0.231,0.349 -0.32,0.752 -0.275,1.136 0.046,0.383 0.225,0.752 0.529,1.035l5.364 5.006c0.257,0.24 0.536,0.392 0.811,0.448 0.276,0.057 0.596,0.027 0.934,-0.094l0.291 -0.091 16.866 -6.065c1.773,-0.637 3.615,-0.709 5.336,-0.268 1.73,0.444 3.314,1.396 4.562,2.806l0.216 0.247c1.706,1.975 2.554,4.415 2.547,6.85 -0.007,2.487 -0.9,4.968 -2.672,6.954 -0.247,0.276 -0.389,0.625 -0.416,0.987 -0.026,0.361 0.067,0.737 0.284,1.069l6.6 10.068c0.188,0.287 0.406,0.493 0.636,0.608 0.24,0.12 0.543,0.174 0.887,0.154l25.771 -1.542c1.098,-0.066 2.173,0.038 3.21,0.346 1.111,0.33 2.145,0.88 3.077,1.687l29.732 25.76c0.039,0.032 0.084,0.059 0.132,0.082 0.101,0.046 0.235,0.086 0.396,0.123l12.998 2.999c2.395,0.551 4.355,2.006 5.597,3.924 1.248,1.928 1.778,4.314 1.306,6.714l-5.091 25.766zm-7.616 -0.652c0.156,-0.313 0.297,-0.593 0.332,-0.77l5.09 -25.765c0.09,-0.46 -0.004,-0.908 -0.231,-1.258 -0.231,-0.358 -0.597,-0.63 -1.041,-0.732l-12.999 -2.999c-0.642,-0.148 -1.252,-0.342 -1.846,-0.617 -0.648,-0.298 -1.258,-0.682 -1.844,-1.186l-29.762 -25.788c-0.101,-0.087 -0.208,-0.146 -0.319,-0.178 -0.184,-0.055 -0.417,-0.071 -0.685,-0.055l-25.772 1.542c-1.642,0.098 -3.218,-0.23 -4.631,-0.938 -1.421,-0.713 -2.633,-1.783 -3.538,-3.162l-6.6 -10.069c-1.138,-1.733 -1.615,-3.72 -1.473,-5.653 0.144,-1.958 0.927,-3.864 2.301,-5.399 0.521,-0.583 0.785,-1.305 0.787,-2.02 0.002,-0.707 -0.242,-1.416 -0.731,-1.992l-0.19 -0.215c-0.245,-0.273 -0.533,-0.452 -0.832,-0.528 -0.311,-0.08 -0.66,-0.06 -1.012,0.065l-16.857 6.063 -0.301 0.122c-1.616,0.578 -3.296,0.687 -4.909,0.355 -1.614,-0.333 -3.119,-1.101 -4.381,-2.276l-5.364 -5.006c-1.64,-1.529 -2.605,-3.517 -2.85,-5.591 -0.245,-2.073 0.229,-4.23 1.465,-6.099l8.763 -13.27c0.899,-1.362 2.078,-2.416 3.451,-3.117l0.005 0.012c1.378,-0.703 2.919,-1.041 4.537,-0.971l21.088 0.903c0.199,0.008 0.383,-0.011 0.552,-0.059 0.148,-0.041 0.304,-0.119 0.469,-0.231l0.005 0.007 57.327 -38.95c0.367,-0.249 0.608,-0.622 0.699,-1.028 0.09,-0.4 0.029,-0.844 -0.203,-1.241l0.011 -0.006 -6.685 -11.408c-0.159,-0.272 -0.361,-0.482 -0.59,-0.619 -0.224,-0.134 -0.501,-0.21 -0.817,-0.221l-22.12 -0.805c-1.256,-0.046 -2.426,-0.318 -3.498,-0.813 -0.971,-0.448 -1.856,-1.08 -2.65,-1.891l-0.235 -0.234c-0.777,-0.843 -1.372,-1.79 -1.782,-2.833l-0.092 -0.228c-0.406,-1.124 -0.579,-2.31 -0.517,-3.547l0.466 -9.338c0.095,-1.914 0.753,-3.669 1.844,-5.098 1.095,-1.433 2.616,-2.529 4.432,-3.123l19.982 -6.52c1.392,-0.453 2.818,-0.567 4.218,-0.351 1.268,0.196 2.482,0.665 3.596,1.399 0.109,0.064 0.217,0.132 0.321,0.207l4.391 3.149c0.216,0.154 0.428,0.255 0.629,0.298 0.182,0.04 0.389,0.042 0.617,0.006 1.46,-0.312 6.986,-1.617 8.073,-1.617 0.324,-0.064 0.595,-0.191 0.794,-0.366 0.197,-0.173 0.357,-0.426 0.465,-0.745 0.103,-0.303 0.125,-0.604 0.07,-0.879 -0.056,-0.282 -0.192,-0.553 -0.402,-0.792l-6.229 -7.108c-0.212,-0.241 -0.46,-0.412 -0.723,-0.501 -0.257,-0.087 -0.564,-0.1 -0.9,-0.034l-37.104 7.388c-0.128,0.026 -0.233,0.055 -0.316,0.09 -0.075,0.031 -0.17,0.087 -0.287,0.166 -19.548,13.199 -36.459,30 -49.773,49.445 -13.079,19.103 -22.698,40.755 -27.949,64.048 -0.077,0.341 -0.063,0.661 0.033,0.936l0 0.014c0.077,0.222 0.221,0.438 0.427,0.635l11.401 9.219 -0.008 0.009 0.008 0.006c0.128,0.105 0.257,0.184 0.387,0.239 0.14,0.061 0.291,0.1 0.453,0.121l17.55 2.249c1.431,0.184 2.728,0.656 3.852,1.391l-0.004 0.006c1.136,0.744 2.088,1.739 2.818,2.958l14.277 23.855c0.56,0.939 1.163,2.113 1.45,3.358 0.466,2.022 0.194,4.035 -1.622,5.652l-10.12 9.013 0.554 11.656c0.016,0.353 0.093,0.671 0.232,0.914 0.052,0.091 0.11,0.164 0.173,0.213l37.897 19.904 -0.003 0.005c1.527,0.804 2.651,1.994 3.389,3.395 0.731,1.39 1.071,2.983 1.038,4.588l-1.02 43.462c-0.002,0.112 0.004,0.212 0.017,0.301l0.044 0.202 15.12 43.338c0.125,0.36 0.342,0.649 0.613,0.842 0.258,0.183 0.601,0.287 0.993,0.287l3.159 0c0.311,0 0.58,-0.056 0.798,-0.161l0.089 -0.056c0.217,-0.131 0.407,-0.326 0.556,-0.573l0.06 -0.124c0.159,-0.306 0.228,-0.612 0.209,-0.894 -0.018,-0.285 -0.129,-0.58 -0.327,-0.861l-0.058 -0.086c-0.559,-0.793 -0.975,-1.616 -1.251,-2.49l0.013 -0.004c-0.289,-0.911 -0.431,-1.82 -0.431,-2.748l0 -3.803 -0.008 -0.256c-0.011,-0.077 -0.029,-0.156 -0.052,-0.237l-2.275 -7.681c-0.257,-0.868 -0.383,-1.736 -0.378,-2.627 0.006,-0.898 0.143,-1.77 0.411,-2.639l4.128 -13.359c0.175,-0.56 0.369,-0.969 0.577,-1.375l0.219 -0.444 0.006 0.004 28.86 -57.382 0.006 0.003zm179.024 -23.332c-14.72,-2.405 -29.02,1.383 -40.236,9.45 -11.153,8.021 -19.265,20.277 -21.72,34.885 -0.015,0.174 -0.043,0.346 -0.083,0.512 -2.316,14.627 1.474,28.821 9.492,39.97 8.023,11.153 20.279,19.264 34.887,21.719 0.174,0.016 0.345,0.043 0.511,0.083 14.627,2.317 28.823,-1.472 39.973,-9.49 11.216,-8.067 19.358,-20.415 21.761,-35.132 2.404,-14.72 -1.384,-29.019 -9.45,-40.236 -8.068,-11.216 -20.418,-19.358 -35.135,-21.761zm-44.561 3.442c12.762,-9.177 29.021,-13.488 45.751,-10.755 16.733,2.732 30.776,11.992 39.952,24.75 9.178,12.761 13.488,29.02 10.756,45.75 -2.733,16.732 -11.991,30.774 -24.75,39.949 -12.758,9.175 -29.013,13.485 -45.737,10.757l-0.012 -0.002c-16.733,-2.733 -30.776,-11.991 -39.953,-24.749 -9.176,-12.758 -13.486,-29.01 -10.758,-45.736l0.001 -0.011c2.733,-16.733 11.993,-30.776 24.75,-39.953zm94.186 -22.485c1.879,-30.062 -3.648,-58.837 -14.221,-84.227 -12.433,-29.856 -31.827,-55.003 -54.334,-72.027 -0.248,-0.188 -0.508,-0.303 -0.762,-0.342 -0.269,-0.041 -0.553,-0.01 -0.836,0.092l-26.984 9.725c-1.723,0.623 -3.498,0.72 -5.163,0.33 -1.677,-0.394 -3.231,-1.271 -4.494,-2.59l-11.246 -11.744c-0.283,-0.297 -0.637,-0.473 -0.998,-0.52 -0.363,-0.048 -0.754,0.034 -1.11,0.25l-26.923 16.442c-0.395,0.241 -0.657,0.619 -0.76,1.034 -0.105,0.422 -0.05,0.887 0.19,1.29l1.988 3.352c1.132,1.908 1.5,4.071 1.162,6.125 -0.34,2.06 -1.386,3.997 -3.078,5.447l-21.703 18.565c-0.265,0.226 -0.447,0.491 -0.535,0.767 -0.088,0.273 -0.093,0.594 -0.008,0.936 0.083,0.337 0.238,0.616 0.445,0.82 0.206,0.202 0.487,0.35 0.822,0.426l19.496 4.41c0.147,0.034 0.259,0.051 0.337,0.052 0.099,0 0.222,-0.014 0.37,-0.045l30.402 -6.211c1.567,-0.318 3.106,-0.24 4.532,0.208 1.445,0.452 2.763,1.272 3.87,2.43l19.108 20.003c1.305,1.368 2.121,3.028 2.414,4.786 0.293,1.762 0.06,3.6 -0.734,5.317l-5.8 12.571c-0.795,1.722 -2.052,3.097 -3.594,4.018 -1.544,0.921 -3.347,1.376 -5.232,1.259l-82.545 -5.096c-0.388,-0.024 -0.741,0.061 -1.024,0.235 -0.233,0.144 -0.434,0.355 -0.579,0.617l-10.418 24.121c-0.122,0.285 -0.175,0.561 -0.158,0.81 0.017,0.241 0.104,0.495 0.259,0.75l15.523 25.459c0.172,0.281 0.374,0.489 0.593,0.615 0.222,0.127 0.495,0.199 0.805,0.206l30.87 0.606c2.02,0.042 3.878,0.711 5.369,1.854 1.464,1.122 2.578,2.691 3.156,4.565l6.857 21.425c5.868,-8.431 13.24,-16.019 22.043,-22.342l0.011 -0.007 -0.011 -0.015c20.816,-14.93 45.774,-19.998 69.262,-16.13 15.666,2.579 30.676,9.131 43.366,19.378zm-17.877 155.966c-8.166,3.963 -16.727,6.631 -25.409,8.049 -0.179,0.166 -0.37,0.323 -0.574,0.468 -19.755,14.083 -40.537,26.513 -63.104,35.457 -22.727,9.007 -47.154,14.448 -73.992,14.448 -61.247,0 -116.699,-24.827 -156.838,-64.966 -40.139,-40.139 -64.966,-95.592 -64.966,-156.838 0,-61.248 24.828,-116.701 64.966,-156.84 40.138,-40.138 95.59,-64.966 156.838,-64.966 61.248,0 116.7,24.828 156.838,64.966 40.139,40.139 64.966,95.592 64.966,156.84 0,10.318 -0.21,20.14 -1.384,30.406 -1.133,9.896 -3.154,20.056 -6.728,31.21 1.815,9.181 2.217,18.534 1.258,27.728 -2.14,20.532 -11.052,40.281 -26.135,55.582l9.191 12.824c3.925,-0.014 7.828,0.78 11.448,2.338 4.514,1.944 8.59,5.086 11.723,9.345l0.194 0.283 36.315 50.525c4.518,6.332 6.068,13.882 4.908,20.978 -1.163,7.114 -5.048,13.774 -11.396,18.305l-0.029 0.021c-6.332,4.514 -13.881,6.064 -20.977,4.903 -7.114,-1.163 -13.773,-5.047 -18.307,-11.394 -12.035,-16.957 -24.39,-33.778 -36.569,-50.642l-0.136 -0.198c-3.039,-4.391 -4.751,-9.435 -5.068,-14.561 -0.248,-3.997 0.352,-8.047 1.829,-11.879l-8.862 -12.392zm-58.591 -3.877c19.056,4.302 39.554,1.838 57.498,-8.061 2.458,-1.446 5.657,-0.797 7.34,1.57l13.392 18.724c1.312,1.685 1.587,4.052 0.511,6.054 -1.552,2.881 -2.21,6.068 -2.016,9.208 0.193,3.129 1.237,6.208 3.088,8.891 12.34,16.622 24.65,33.828 36.639,50.721 2.731,3.824 6.746,6.165 11.037,6.866 4.307,0.704 8.895,-0.24 12.749,-2.988l0.03 -0.021c3.824,-2.73 6.166,-6.745 6.867,-11.035 0.705,-4.308 -0.239,-8.898 -2.988,-12.754 -11.083,-16.76 -24.448,-34.023 -36.28,-50.485l-0.145 -0.189c-1.901,-2.585 -4.389,-4.498 -7.152,-5.687 -2.835,-1.221 -5.963,-1.673 -9.045,-1.304 -1.975,0.264 -4.028,-0.544 -5.27,-2.277l-13.783 -19.234 0.005 -0.004c-1.624,-2.263 -1.331,-5.433 0.779,-7.353 15.187,-13.83 24.123,-32.485 26.15,-51.935 0.881,-8.442 0.461,-17.034 -1.309,-25.445 -0.062,-0.22 -0.11,-0.446 -0.144,-0.674 -2.283,-10.41 -6.643,-20.53 -13.181,-29.735l-0.26 -0.336c-13.152,-18.334 -32.529,-29.611 -53.194,-33.014 -20.676,-3.405 -42.653,1.062 -60.991,14.215l-0.011 -0.014c-18.318,13.159 -29.591,32.551 -32.995,53.234 -3.404,20.689 1.054,42.658 14.197,60.967 12.139,16.915 29.598,27.831 48.482,32.095z"/></g></svg>